PathFileType	4	(X/Y/Z)	/Users/itak/Documents/Research/Walk-IL/dataset/trc/00551_00009.trc
DataRate	CameraRate	NumFrames	NumMarkers	Units	OrigDataRate	OrigDataStartFrame	OrigNumFrames
100.000000	100.000000	4	53	mm	100.000000	244	489
Frame#	Time	RPSI			LPSI			L3			STRN			T10			C7			CLAV			RBAK			LBAK			LSHO			LUPA			LAEL			LAOL			LWTS			LWPS			LFRA			LIFD			LHPS			LHTS			RSHO			RUPA			RAEL			RAOL			RWTS			RWPS			RFRA			RIFD			RHTS			RHPS			RBHD			LFHD			RFHD			LBHD			LHIP			RHIP			RASI			LASI			LKNE			LTHI			LANK			LTIP			LTOE			LMT1			LMT5			LHEE			RKNE			RTHI			RANK			RTIP			RTOE			RMT1			RMT5			RHEE			
		X1	Y1	Z1	X2	Y2	Z2	X3	Y3	Z3	X4	Y4	Z4	X5	Y5	Z5	X6	Y6	Z6	X7	Y7	Z7	X8	Y8	Z8	X9	Y9	Z9	X10	Y10	Z10	X11	Y11	Z11	X12	Y12	Z12	X13	Y13	Z13	X14	Y14	Z14	X15	Y15	Z15	X16	Y16	Z16	X17	Y17	Z17	X18	Y18	Z18	X19	Y19	Z19	X20	Y20	Z20	X21	Y21	Z21	X22	Y22	Z22	X23	Y23	Z23	X24	Y24	Z24	X25	Y25	Z25	X26	Y26	Z26	X27	Y27	Z27	X28	Y28	Z28	X29	Y29	Z29	X30	Y30	Z30	X31	Y31	Z31	X32	Y32	Z32	X33	Y33	Z33	X34	Y34	Z34	X35	Y35	Z35	X36	Y36	Z36	X37	Y37	Z37	X38	Y38	Z38	X39	Y39	Z39	X40	Y40	Z40	X41	Y41	Z41	X42	Y42	Z42	X43	Y43	Z43	X44	Y44	Z44	X45	Y45	Z45	X46	Y46	Z46	X47	Y47	Z47	X48	Y48	Z48	X49	Y49	Z49	X50	Y50	Z50	X51	Y51	Z51	X52	Y52	Z52	X53	Y53	Z53	

245	2.44	117.0032119750977	998.1554565429688	261.6723937988281	127.8892822265625	1007.002868652344	129.3133697509766	130.9403991699219	1102.65185546875	194.9630432128906	372.4975280761719	1290.308349609375	200.7526245117188	126.586555480957	1228.298217773438	194.7204742431641	177.1168365478516	1502.013549804688	210.2579193115234	353.0621948242188	1402.053588867188	201.3204345703125	106.3391494750977	1377.5263671875	294.408203125	143.8034362792969	1450.455688476562	118.6869659423828	243.1338958740234	1476.214599609375	39.59685897827148	235.4193878173828	1353.205688476562	-45.05765151977539	260.1830444335938	1132.65625	-75.72586822509766	168.8537292480469	1122.3427734375	-32.19416427612305	354.9956665039062	889.7838134765625	-29.63993644714355	318.0311889648438	869.7158813476562	-106.2867736816406	285.8697509765625	1047.672241210938	-84.17290496826172	356.002685546875	719.5516967773438	-42.95495986938477	326.9829406738281	809.8080444335938	-99.80998992919922	374.3198852539062	813.7957153320312	-50.91110610961914	235.7619018554688	1465.212646484375	365.0225524902344	214.8684234619141	1402.178955078125	432.3569030761719	203.5863494873047	1115.755004882812	484.3711853027344	148.8224334716797	1097.7880859375	456.3807067871094	340.4326171875	896.3626098632812	455.819580078125	295.4545288085938	876.818115234375	521.2593383789062	214.2447052001953	1060.905151367188	493.6249084472656	356.5374450683594	723.4249877929688	465.4970703125	369.7867126464844	805.99951171875	472.7683410644531	312.537841796875	802.1669311523438	519.1773071289062	253.4423370361328	1677.747680664062	282.6165466308594	401.6124267578125	1710.59912109375	140.202880859375	391.9143981933594	1705.037719726562	284.2905578613281	272.4856262207031	1682.894653320312	118.3743896484375	263.0575561523438	940.0486450195312	12.23028564453125	237.1161193847656	928.2805786132812	388.2124633789062	324.177734375	964.9156494140625	339.2332458496094	342.0375061035156	966.012939453125	64.680908203125	371.5730590820312	504.03515625	95.21099853515625	341.570556640625	665.016357421875	48.72378540039062	287.2497253417969	31.84578132629395	120.3394012451172	313.9526977539062	250.8783874511719	101.678352355957	497.1935729980469	42.22542190551758	184.0669250488281	424.2087707519531	46.89631271362305	216.7859497070312	409.5855407714844	36.49267196655273	108.413330078125	217.6473846435547	38.74690628051758	172.1872863769531	335.806884765625	493.3941650390625	376.5114135742188	297.3340454101562	781.7108154296875	390.7145385742188	-44.68989562988281	207.7476959228516	340.279541015625	256.1199645996094	371.3097839355469	361.3638610839844	101.779296875	48.94562530517578	311.2753295898438	62.13235092163086	93.95524597167969	267.2545166015625	33.95415878295898	106.4097442626953	367.8086242675781	-75.11239624023438	246.2491455078125	280.0793762207031	
246	2.45	124.8531646728516	998.8994750976562	261.3351440429688	135.7347259521484	1007.807312011719	128.9723510742188	138.6895446777344	1103.53173828125	194.2425231933594	380.4211730957031	1291.14599609375	200.8577575683594	134.3497924804688	1229.248901367188	194.0083160400391	185.25537109375	1502.874145507812	209.6556549072266	361.0894775390625	1402.875854492188	201.5100860595703	114.0196685791016	1378.407592773438	293.4583129882812	152.2676696777344	1451.436889648438	117.8734893798828	252.0384063720703	1477.176879882812	39.33702850341797	245.4895629882812	1354.297119140625	-45.49164962768555	272.7464294433594	1134.11083984375	-76.57263946533203	181.0902404785156	1122.754150390625	-34.07889175415039	369.8125305175781	892.2266845703125	-30.23591804504395	333.9465637207031	871.9865112304688	-107.3467102050781	299.5403137207031	1049.47412109375	-85.07271575927734	373.1088562011719	722.0902099609375	-44.14456176757812	343.559814453125	812.16015625	-100.9745941162109	390.3106384277344	816.5504760742188	-51.56184768676758	243.0848236083984	1466.065551757812	364.68212890625	221.8897247314453	1403.03564453125	431.9231262207031	210.6486053466797	1116.59033203125	483.8271179199219	155.9654998779297	1098.453002929688	455.7085876464844	348.7524719238281	898.052978515625	455.5192565917969	303.4223937988281	878.1218872070312	520.6248779296875	221.4424896240234	1061.788696289062	493.1132202148438	366.0104370117188	725.2174072265625	465.2085876464844	378.6330261230469	807.8906860351562	472.5868225097656	321.1832885742188	803.6068725585938	518.6748046875	261.7330932617188	1678.600830078125	282.5929260253906	410.0928649902344	1711.272705078125	140.3655242919922	400.19921875	1705.705444335938	284.400390625	280.9316711425781	1683.79150390625	118.3745574951172	270.8339233398438	940.4576416015625	11.54555988311768	245.3855743408203	929.7930297851562	388.1371765136719	332.0444030761719	966.4923706054688	338.5754699707031	349.7781066894531	966.4916381835938	64.00988006591797	374.3032836914062	503.4297485351562	94.9564208984375	346.2757568359375	664.75830078125	48.52366638183594	287.2178955078125	31.91164016723633	120.420036315918	315.0158081054688	250.6876831054688	101.638313293457	497.1924743652344	42.19035720825195	184.1116943359375	424.2404174804688	46.84024810791016	216.8131561279297	409.5799865722656	36.49563217163086	108.4368896484375	217.5758209228516	38.75556945800781	172.2393798828125	352.5353698730469	496.6603698730469	376.9738159179688	307.8017578125	784.0587768554688	391.1374816894531	-21.38720893859863	201.9927825927734	341.8766784667969	275.2775268554688	373.2132873535156	362.1936645507812	130.8124084472656	48.9049186706543	313.8385314941406	89.62345123291016	92.17598724365234	269.4361572265625	60.79402923583984	103.8485260009766	369.812255859375	-53.22140121459961	239.2321166992188	281.5336608886719	
247	2.46	132.6799468994141	999.5799560546875	261.1245727539062	143.5325012207031	1008.509948730469	128.7385864257812	146.3162231445312	1104.32470703125	193.6031951904297	388.2967529296875	1291.88818359375	200.9468536376953	142.1004028320312	1230.107177734375	193.3318023681641	193.3351135253906	1503.642578125	209.0908508300781	369.0671081542969	1403.611083984375	201.6993865966797	121.6635437011719	1379.19189453125	292.5438842773438	160.6844329833984	1452.292846679688	117.1184234619141	260.8425598144531	1478.068237304688	39.11499404907227	255.4729156494141	1355.315673828125	-45.87408447265625	285.2676696777344	1135.530517578125	-77.31493377685547	193.3264312744141	1123.096435546875	-35.82697296142578	384.6532287597656	894.6759033203125	-30.71478080749512	349.8874816894531	874.288818359375	-108.2712783813477	313.1896057128906	1051.244995117188	-85.85936737060547	390.1520080566406	724.6525268554688	-45.1823616027832	360.14404296875	814.5463256835938	-102.0007629394531	406.2850952148438	819.3056030273438	-52.06376647949219	250.3851928710938	1466.817016601562	364.3551940917969	228.8845672607422	1403.790405273438	431.5003356933594	217.6377716064453	1117.336059570312	483.3086242675781	163.0441741943359	1099.021240234375	455.0574951171875	357.0463256835938	899.6981811523438	455.2278137207031	311.3350524902344	879.3231201171875	519.9725952148438	228.5823822021484	1062.586181640625	492.6219177246094	375.4763488769531	726.95947265625	464.9057922363281	387.4728698730469	809.7338256835938	472.3909301757812	329.8046569824219	804.9849243164062	518.1730346679688	269.9743957519531	1679.367919921875	282.6031188964844	418.5474853515625	1711.854736328125	140.5863647460938	408.4552307128906	1706.255249023438	284.5769958496094	289.3433837890625	1684.60498046875	118.4295959472656	278.4944763183594	940.7843627929688	10.82184600830078	253.6869049072266	931.2431640625	388.1102600097656	339.9056091308594	967.9529418945312	337.9009399414062	357.4031677246094	966.8882446289062	63.29935455322266	376.9358215332031	502.7990112304688	94.64389801025391	350.83544921875	664.450439453125	48.28407669067383	287.1794128417969	31.98599243164062	120.4787750244141	316.0422668457031	250.50146484375	101.5836029052734	497.1943054199219	42.15475845336914	184.1488800048828	424.2703857421875	46.78877258300781	216.8401947021484	409.5762329101562	36.49539566040039	108.4565658569336	217.5338897705078	38.76481246948242	172.3054656982422	368.9186096191406	499.9349060058594	377.3282470703125	318.1836853027344	786.3616943359375	391.5987854003906	2.628980159759521	195.0861968994141	343.4648742675781	294.3139953613281	374.9860229492188	362.9486694335938	161.0863800048828	48.65579223632812	316.4081726074219	118.2486038208008	89.98489379882812	271.6585388183594	88.67425537109375	100.6503219604492	371.7989501953125	-30.67205429077148	230.8817443847656	282.9658813476562	
248	2.47	140.4746856689453	1000.1884765625	261.0473022460938	151.2921142578125	1009.103698730469	128.6116027832031	153.8226470947266	1105.029907226562	193.0623626708984	396.1336975097656	1292.524169921875	201.0162506103516	149.8521118164062	1230.863525390625	192.6954040527344	201.3613586425781	1504.310791015625	208.5661163330078	377.0010375976562	1404.248291015625	201.8846588134766	129.2800903320312	1379.87109375	291.6656799316406	169.0583190917969	1453.024047851562	116.415412902832	269.5543518066406	1478.88037109375	38.9268913269043	265.3727722167969	1356.253784179688	-46.21620178222656	297.7301025390625	1136.9052734375	-77.96983337402344	205.5441741943359	1123.362548828125	-37.45006561279297	399.5059509277344	897.1337280273438	-31.07952880859375	365.8226928710938	876.60595703125	-109.0498886108398	326.7818603515625	1052.965942382812	-86.52979278564453	407.1605834960938	727.239990234375	-46.0535774230957	376.7184448242188	816.9541015625	-102.8745346069336	422.2395629882812	822.0692749023438	-52.41910552978516	257.6789855957031	1467.453857421875	364.0419311523438	235.8752746582031	1404.4306640625	431.0875854492188	224.5658264160156	1117.98095703125	482.8197021484375	170.0715789794922	1099.487915039062	454.4348449707031	365.3034362792969	901.2666625976562	454.9388427734375	319.2048950195312	880.4046630859375	519.309814453125	235.6793823242188	1063.281372070312	492.148681640625	384.9185180664062	728.6270141601562	464.5703735351562	396.291015625	811.4995727539062	472.1682739257812	338.3869323730469	806.2800903320312	517.6652221679688	278.1676940917969	1680.038208007812	282.6452331542969	426.9736633300781	1712.346435546875	140.8600769042969	416.6817321777344	1706.686767578125	284.8121032714844	297.7196350097656	1685.32666015625	118.5303649902344	286.05078125	941.0311889648438	10.06742477416992	262.0370483398438	932.6109619140625	388.1165161132812	347.7738037109375	969.2791748046875	337.2170104980469	364.9236145019531	967.204345703125	62.5567741394043	379.4696960449219	502.1459045410156	94.26612091064453	355.2672729492188	664.1034545898438	48.00889587402344	287.1395263671875	32.06831359863281	120.5217514038086	317.0293884277344	250.3255615234375	101.5038528442383	497.1987915039062	42.12017822265625	184.1769714355469	424.2973327636719	46.74362945556641	216.8641815185547	409.573974609375	36.49209976196289	108.4709854125977	217.5195159912109	38.78050231933594	172.3823089599609	384.9616088867188	503.1810302734375	377.567138671875	328.5014953613281	788.6006469726562	392.09228515625	27.3699836730957	187.2138671875	344.9916381835938	313.2335815429688	376.5944519042969	363.6161499023438	192.4255828857422	48.30792999267578	319.1018371582031	147.9227600097656	87.45195007324219	273.9960021972656	117.4797210693359	96.99141693115234	373.8459777832031	-7.396402835845947	221.3371124267578	284.2897644042969	
